<svg width="120" height="120" viewBox="0 0 120 120" fill="none" xmlns="http://www.w3.org/2000/svg">
<g clip-path="url(#clip0_0_219)">
<path d="M33.2134 39.1314C27.1942 39.5418 26.712 43.7967 27.2234 45.8729C27.8662 49.3901 32.9943 49.6832 35.4779 49.3901C38.2246 51.266 43.1968 50.4649 45.3396 49.8298C48.4368 53.6988 54.1785 51.7838 56.6622 50.3427C60.5581 52.3701 68.9344 54.3876 71.272 46.2392C73.6095 38.0909 66.2072 35.1256 62.2139 34.6616C61.1912 32.7319 57.5972 28.8874 51.4026 28.946C45.2081 29.0046 42.4419 32.7808 41.8332 34.6616C36.4568 34.0167 33.8465 37.3728 33.2134 39.1314Z" fill="url(#paint0_radial_0_219)" fill-opacity="0.5"/>
<g filter="url(#filter0_f_0_219)">
<circle cx="60" cy="60" r="49.5703" fill="url(#paint1_radial_0_219)"/>
</g>
<g filter="url(#filter1_f_0_219)">
<path d="M107.213 57.493C80.2586 70.2833 62.5724 39.8563 80.8889 21.5847C81.7446 20.7311 81.2334 19.2022 80.025 19.2252C52.2097 19.7549 47.6489 52.7269 60.9888 66.9257C80.4135 86.7906 105.91 73.5955 109.033 58.7517C109.247 57.7366 108.15 57.0482 107.213 57.493Z" fill="#FCF2B6" fill-opacity="0.5"/>
</g>
<g filter="url(#filter2_i_0_219)">
<path d="M107.213 57.493C80.2586 70.2833 62.5724 39.8563 80.8889 21.5847C81.7446 20.7311 81.2334 19.2022 80.025 19.2252C52.2097 19.7549 47.6489 52.7269 60.9888 66.9257C80.4135 86.7906 105.91 73.5955 109.033 58.7517C109.247 57.7366 108.15 57.0482 107.213 57.493Z" fill="#FCF2B6"/>
</g>
<mask id="mask0_0_219" style="mask-type:alpha" maskUnits="userSpaceOnUse" x="53" y="19" width="57" height="58">
<path d="M107.213 57.493C80.2586 70.2833 62.5724 39.8563 80.8889 21.5847C81.7446 20.7311 81.2334 19.2022 80.025 19.2252C52.2097 19.7549 47.6489 52.7269 60.9888 66.9257C80.4135 86.7906 105.91 73.5955 109.033 58.7517C109.247 57.7366 108.15 57.0482 107.213 57.493Z" fill="#FCF2B6"/>
</mask>
<g mask="url(#mask0_0_219)">
<g filter="url(#filter3_d_0_219)">
<g filter="url(#filter4_i_0_219)">
<path d="M84.4703 77.7921C95.3943 79.3355 95.7118 87.1356 94.505 90.8427C92.8682 97.1526 83.4767 97.0063 78.9856 96.1445C73.7284 99.1914 64.7657 97.0761 60.9414 95.6377C54.7816 102.262 44.5626 98.0198 40.223 95.0706C32.8497 98.2406 17.3063 100.799 14.1188 85.6746C10.9314 70.5498 24.8235 66.1389 32.1681 65.824C34.2881 62.451 41.3507 55.9369 52.6408 56.864C63.931 57.791 68.4774 65.0232 69.3393 68.5234C79.2302 68.0631 83.5478 74.5108 84.4703 77.7921Z" fill="url(#paint2_linear_0_219)"/>
</g>
<g filter="url(#filter5_f_0_219)">
<path d="M67.6906 70.5784C67.4658 75.7919 65.9798 87.2602 61.8342 91.4253C65.2875 88.6042 71.2933 80.4852 67.6906 70.5784Z" fill="#A29A97" fill-opacity="0.4"/>
</g>
</g>
</g>
<g filter="url(#filter6_i_0_219)">
<path d="M84.4703 77.7921C95.3943 79.3355 95.7118 87.1356 94.505 90.8427C92.8682 97.1526 83.4767 97.0063 78.9856 96.1445C73.7284 99.1914 64.7657 97.0761 60.9414 95.6377C54.7816 102.262 44.5626 98.0198 40.223 95.0706C32.8497 98.2406 17.3063 100.799 14.1188 85.6746C10.9314 70.5498 24.8235 66.1389 32.1681 65.824C34.2881 62.451 41.3507 55.9369 52.6408 56.864C63.931 57.791 68.4774 65.0232 69.3393 68.5234C79.2302 68.0631 83.5478 74.5108 84.4703 77.7921Z" fill="url(#paint3_linear_0_219)"/>
</g>
<g filter="url(#filter7_f_0_219)">
<path d="M33.2405 68.2568C36.0998 73.6327 41.3924 86.0448 39.6885 92.6866C41.4915 87.806 42.7263 76.0872 33.2405 68.2568Z" fill="#A29A97" fill-opacity="0.4"/>
</g>
<g filter="url(#filter8_f_0_219)">
<path d="M67.6906 70.5784C67.4658 75.7919 65.9798 87.2602 61.8342 91.4253C65.2875 88.6042 71.2933 80.4852 67.6906 70.5784Z" fill="#A29A97" fill-opacity="0.4"/>
</g>
<g filter="url(#filter9_f_0_219)">
<path d="M83.402 80.709C83.2708 83.752 82.4034 90.4456 79.9838 92.8767C81.9994 91.2301 85.5048 86.4913 83.402 80.709Z" fill="#A29A97" fill-opacity="0.4"/>
</g>
<path d="M24.7703 13.8524C24.9968 13.2402 25.8626 13.2402 26.0891 13.8524L26.9001 16.0439C26.9713 16.2364 27.123 16.3881 27.3155 16.4593L29.507 17.2703C30.1191 17.4968 30.1191 18.3626 29.507 18.5891L27.3155 19.4001C27.123 19.4713 26.9713 19.623 26.9001 19.8155L26.0891 22.007C25.8626 22.6191 24.9968 22.6191 24.7703 22.007L23.9593 19.8155C23.8881 19.623 23.7364 19.4713 23.5439 19.4001L21.3524 18.5891C20.7402 18.3626 20.7402 17.4968 21.3524 17.2703L23.5439 16.4593C23.7364 16.3881 23.8881 16.2364 23.9593 16.0439L24.7703 13.8524Z" fill="white" fill-opacity="0.2"/>
<path d="M77.5414 105.539C77.6546 105.233 78.0875 105.233 78.2008 105.539L78.907 107.448C78.9426 107.544 79.0184 107.62 79.1147 107.656L81.023 108.362C81.3291 108.475 81.3291 108.908 81.023 109.021L79.1147 109.727C79.0184 109.763 78.9426 109.839 78.907 109.935L78.2008 111.843C78.0875 112.149 77.6546 112.149 77.5414 111.843L76.8352 109.935C76.7996 109.839 76.7237 109.763 76.6275 109.727L74.7192 109.021C74.4131 108.908 74.4131 108.475 74.7192 108.362L76.6275 107.656C76.7237 107.62 76.7996 107.544 76.8352 107.448L77.5414 105.539Z" fill="white" fill-opacity="0.2"/>
<path d="M103.616 32.6488C103.729 32.3428 104.162 32.3428 104.275 32.6488L104.649 33.6591C104.684 33.7553 104.76 33.8312 104.857 33.8668L105.867 34.2406C106.173 34.3539 106.173 34.7868 105.867 34.9L104.857 35.2738C104.76 35.3095 104.684 35.3853 104.649 35.4816L104.275 36.4918C104.162 36.7979 103.729 36.7979 103.616 36.4918L103.242 35.4816C103.206 35.3853 103.13 35.3095 103.034 35.2738L102.024 34.9C101.718 34.7868 101.718 34.3539 102.024 34.2406L103.034 33.8668C103.13 33.8312 103.206 33.7553 103.242 33.6591L103.616 32.6488Z" fill="white" fill-opacity="0.2"/>
</g>
<defs>
<filter id="filter0_f_0_219" x="-35.2734" y="-35.2734" width="190.547" height="190.547" filterUnits="userSpaceOnUse" color-interpolation-filters="sRGB">
<feFlood flood-opacity="0" result="BackgroundImageFix"/>
<feBlend mode="normal" in="SourceGraphic" in2="BackgroundImageFix" result="shape"/>
<feGaussianBlur stdDeviation="22.8516" result="effect1_foregroundBlur_0_219"/>
</filter>
<filter id="filter1_f_0_219" x="43.698" y="9.13376" width="75.4533" height="77.9495" filterUnits="userSpaceOnUse" color-interpolation-filters="sRGB">
<feFlood flood-opacity="0" result="BackgroundImageFix"/>
<feBlend mode="normal" in="SourceGraphic" in2="BackgroundImageFix" result="shape"/>
<feGaussianBlur stdDeviation="5.04555" result="effect1_foregroundBlur_0_219"/>
</filter>
<filter id="filter2_i_0_219" x="53.7891" y="16.5693" width="55.2711" height="60.4229" filterUnits="userSpaceOnUse" color-interpolation-filters="sRGB">
<feFlood flood-opacity="0" result="BackgroundImageFix"/>
<feBlend mode="normal" in="SourceGraphic" in2="BackgroundImageFix" result="shape"/>
<feColorMatrix in="SourceAlpha" type="matrix" values="0 0 0 0 0 0 0 0 0 0 0 0 0 0 0 0 0 0 127 0" result="hardAlpha"/>
<feOffset dy="-2.65555"/>
<feGaussianBlur stdDeviation="5.04555"/>
<feComposite in2="hardAlpha" operator="arithmetic" k2="-1" k3="1"/>
<feColorMatrix type="matrix" values="0 0 0 0 0.730732 0 0 0 0 0.49337 0 0 0 0 0.299165 0 0 0 1 0"/>
<feBlend mode="normal" in2="shape" result="effect1_innerShadow_0_219"/>
</filter>
<filter id="filter3_d_0_219" x="9.78418" y="51.8528" width="89.0685" height="50.1108" filterUnits="userSpaceOnUse" color-interpolation-filters="sRGB">
<feFlood flood-opacity="0" result="BackgroundImageFix"/>
<feColorMatrix in="SourceAlpha" type="matrix" values="0 0 0 0 0 0 0 0 0 0 0 0 0 0 0 0 0 0 127 0" result="hardAlpha"/>
<feOffset dy="-1.05469"/>
<feGaussianBlur stdDeviation="1.93359"/>
<feComposite in2="hardAlpha" operator="out"/>
<feColorMatrix type="matrix" values="0 0 0 0 0.807843 0 0 0 0 0.627451 0 0 0 0 0.423529 0 0 0 0.6 0"/>
<feBlend mode="normal" in2="BackgroundImageFix" result="effect1_dropShadow_0_219"/>
<feBlend mode="normal" in="SourceGraphic" in2="effect1_dropShadow_0_219" result="shape"/>
</filter>
<filter id="filter4_i_0_219" x="13.6514" y="54.666" width="81.3341" height="44.4852" filterUnits="userSpaceOnUse" color-interpolation-filters="sRGB">
<feFlood flood-opacity="0" result="BackgroundImageFix"/>
<feBlend mode="normal" in="SourceGraphic" in2="BackgroundImageFix" result="shape"/>
<feColorMatrix in="SourceAlpha" type="matrix" values="0 0 0 0 0 0 0 0 0 0 0 0 0 0 0 0 0 0 127 0" result="hardAlpha"/>
<feOffset dy="-2.1087"/>
<feGaussianBlur stdDeviation="5.1546"/>
<feComposite in2="hardAlpha" operator="arithmetic" k2="-1" k3="1"/>
<feColorMatrix type="matrix" values="0 0 0 0 0.65098 0 0 0 0 0.611765 0 0 0 0 0.576471 0 0 0 1 0"/>
<feBlend mode="normal" in2="shape" result="effect1_innerShadow_0_219"/>
</filter>
<filter id="filter5_f_0_219" x="56.5133" y="65.2574" width="17.6105" height="31.4888" filterUnits="userSpaceOnUse" color-interpolation-filters="sRGB">
<feFlood flood-opacity="0" result="BackgroundImageFix"/>
<feBlend mode="normal" in="SourceGraphic" in2="BackgroundImageFix" result="shape"/>
<feGaussianBlur stdDeviation="2.66048" result="effect1_foregroundBlur_0_219"/>
</filter>
<filter id="filter6_i_0_219" x="13.6514" y="54.666" width="81.3341" height="44.4852" filterUnits="userSpaceOnUse" color-interpolation-filters="sRGB">
<feFlood flood-opacity="0" result="BackgroundImageFix"/>
<feBlend mode="normal" in="SourceGraphic" in2="BackgroundImageFix" result="shape"/>
<feColorMatrix in="SourceAlpha" type="matrix" values="0 0 0 0 0 0 0 0 0 0 0 0 0 0 0 0 0 0 127 0" result="hardAlpha"/>
<feOffset dy="-2.1087"/>
<feGaussianBlur stdDeviation="5.1546"/>
<feComposite in2="hardAlpha" operator="arithmetic" k2="-1" k3="1"/>
<feColorMatrix type="matrix" values="0 0 0 0 0.65098 0 0 0 0 0.611765 0 0 0 0 0.576471 0 0 0 1 0"/>
<feBlend mode="normal" in2="shape" result="effect1_innerShadow_0_219"/>
</filter>
<filter id="filter7_f_0_219" x="27.1487" y="62.165" width="19.8854" height="36.6135" filterUnits="userSpaceOnUse" color-interpolation-filters="sRGB">
<feFlood flood-opacity="0" result="BackgroundImageFix"/>
<feBlend mode="normal" in="SourceGraphic" in2="BackgroundImageFix" result="shape"/>
<feGaussianBlur stdDeviation="3.0459" result="effect1_foregroundBlur_0_219"/>
</filter>
<filter id="filter8_f_0_219" x="56.5133" y="65.2574" width="17.6105" height="31.4888" filterUnits="userSpaceOnUse" color-interpolation-filters="sRGB">
<feFlood flood-opacity="0" result="BackgroundImageFix"/>
<feBlend mode="normal" in="SourceGraphic" in2="BackgroundImageFix" result="shape"/>
<feGaussianBlur stdDeviation="2.66048" result="effect1_foregroundBlur_0_219"/>
</filter>
<filter id="filter9_f_0_219" x="76.5841" y="77.3093" width="10.8668" height="18.9671" filterUnits="userSpaceOnUse" color-interpolation-filters="sRGB">
<feFlood flood-opacity="0" result="BackgroundImageFix"/>
<feBlend mode="normal" in="SourceGraphic" in2="BackgroundImageFix" result="shape"/>
<feGaussianBlur stdDeviation="1.69985" result="effect1_foregroundBlur_0_219"/>
</filter>
<radialGradient id="paint0_radial_0_219" cx="0" cy="0" r="1" gradientTransform="matrix(-0.00846239 15.4878 29.8022 0.014373 49.403 36.6607)" gradientUnits="userSpaceOnUse">
<stop stop-color="#949DDA"/>
<stop offset="1" stop-color="#5462B3"/>
</radialGradient>
<radialGradient id="paint1_radial_0_219" cx="0" cy="0" r="1" gradientUnits="userSpaceOnUse" gradientTransform="translate(60 60) rotate(90) scale(49.5703)">
<stop stop-color="#5835AB"/>
<stop offset="1" stop-color="#5835AB" stop-opacity="0"/>
</radialGradient>
<linearGradient id="paint2_linear_0_219" x1="56.3034" y1="57.1287" x2="53.2396" y2="99.3163" gradientUnits="userSpaceOnUse">
<stop stop-color="#FFF6FA"/>
<stop offset="1" stop-color="#B3B1B2"/>
</linearGradient>
<linearGradient id="paint3_linear_0_219" x1="56.3034" y1="57.1287" x2="53.2396" y2="99.3163" gradientUnits="userSpaceOnUse">
<stop stop-color="#FFF6FA"/>
<stop offset="1" stop-color="#B3B1B2"/>
</linearGradient>
<clipPath id="clip0_0_219">
<rect width="120" height="120" fill="white"/>
</clipPath>
</defs>
</svg>
